<svg id="Layer_1" data-name="Layer 1" xmlns="http://www.w3.org/2000/svg" viewBox="0 0 14 16"><defs><style>.cls-1{fill:#666;fill-rule:evenodd;}</style></defs><path class="cls-1" d="M0,11.5a.5.5,0,0,0,.5.5H12.29L9.15,15.15a.49.49,0,0,0,.7.7h0l4-4a.49.49,0,0,0,0-.68l0,0h0l-4-4a.49.49,0,0,0-.7.7L12.29,11H.5A.5.5,0,0,0,0,11.5Zm14-7a.5.5,0,0,1-.5.5H1.71L4.85,8.15a.49.49,0,0,1-.7.7l-4-4a.49.49,0,0,1,0-.68l0,0h0l4-4a.49.49,0,0,1,.68,0l0,0a.49.49,0,0,1,0,.68l0,0L1.71,4H13.5A.5.5,0,0,1,14,4.5Z" transform="translate(0 0)"/></svg>